# Made using Asset Forge (www.assetforge.io) version 1.3 

mtllib Obstacle.mtl 

g naturePack_014_17

v 0.002736837 0.77 0.2777152
v 0.207496 0.77 -0.07693756
v 0.207496 0.77 0.1594976
v 0.002736837 0.77 -0.1951551
v -0.2020223 0.77 0.1594976
v -0.2020223 0.77 -0.07693756
v -0.3443119 0.57 0.2416488
v 0.002736837 0.57 0.4420178
v 0.3497859 0.57 0.2416488
v 0.3497859 0.57 -0.1590888
v 0.002736837 0.57 -0.3594559
v -0.3443119 0.57 -0.1590888
v -0.3945263 0.18 -0.18808
v -0.3945263 0.18 0.27064
v 0.002736837 0.18 0.5
v 0.4 0.18 0.27064
v 0.4 0.18 -0.18808
v 0.002736837 0.18 -0.41744
v -0.3228888 0 -0.1467199
v 0.002736837 0 -0.33472
v 0.002736837 0 0.41728
v 0.3283624 0 0.22928
v 0.3283624 0 -0.1467199
v -0.3228888 0 0.22928
vn 0 1 0
vn -0.2989008 0.664541 0.5177112
vn 0.2989008 0.664541 0.5177112
vn 0.5978016 0.664541 7.048272E-18
vn 0.2989008 0.664541 -0.5177112
vn -0.2989008 0.664541 -0.5177112
vn -0.5978016 0.664541 -9.154239E-18
vn -0.7898359 0.158898 -4.559544E-18
vn -0.3949184 0.158898 0.6840184
vn 0.3949184 0.158898 0.6840184
vn 0.7898359 0.158898 -1.43668E-18
vn 0.3949184 0.158898 -0.6840184
vn -0.3949184 0.158898 -0.6840184
vn -0.3581304 -0.44541 -0.6203008
vn 0 -1 0
vn 0.7162615 -0.44541 -9.361119E-18
vn 0.3581304 -0.44541 0.6203008
vn -0.3581304 -0.44541 0.6203008
vn -0.7162615 -0.44541 -3.3878E-18
vn 0.3581304 -0.44541 -0.6203008
vt -0.002736836 0.2777152
vt -0.207496 -0.07693755
vt -0.207496 0.1594976
vt -0.002736836 -0.1951551
vt 0.2020224 0.1594976
vt 0.2020224 -0.07693755
vt 0.002736836 0.77
vt -0.344312 0.57
vt -0.2020224 0.77
vt 0.002736836 0.57
vt 0.207496 0.77
vt 0.3497859 0.57
vt -0.1594976 0.77
vt 0.1590888 0.57
vt -0.2416488 0.57
vt 0.07693755 0.77
vt -0.207496 0.77
vt -0.002736836 0.57
vt -0.3497859 0.57
vt -0.002736836 0.77
vt 0.344312 0.57
vt 0.2020224 0.77
vt 0.1594976 0.77
vt -0.1590888 0.57
vt -0.07693755 0.77
vt 0.2416488 0.57
vt -0.1880799 0.18
vt 0.27064 0.18
vt 0.002736836 0.18
vt -0.3945263 0.18
vt 0.4 0.18
vt 0.1880799 0.18
vt -0.27064 0.18
vt -0.002736836 0.18
vt -0.4 0.18
vt 0.3945263 0.18
vt 0.3228888 0
vt -0.002736836 0
vt -0.002736836 -0.41728
vt -0.002736836 0.33472
vt 0.3228888 0.1467199
vt -0.3283624 -0.22928
vt -0.3283624 0.1467199
vt -0.22928 0
vt 0.1467199 0
vt 0.3283624 0
vt 0.002736836 0
vt -0.3228888 0
vt 0.3228888 -0.22928
vt 0.22928 0
vt -0.1467199 0
vt -0.3283624 0

usemtl Green_leafs (Instance)
usemap Green_leafs (Instance)
f 3/3/1 2/2/1 1/1/1
f 4/4/1 1/1/1 2/2/1
f 5/5/1 1/1/1 4/4/1
f 6/6/1 5/5/1 4/4/1

usemtl Wood (Instance)
usemap Wood (Instance)
f 5/9/2 7/8/2 1/7/2
f 8/10/2 1/7/2 7/8/2
f 1/7/3 8/10/3 3/11/3
f 9/12/3 3/11/3 8/10/3
f 9/15/4 10/14/4 3/13/4
f 2/16/4 3/13/4 10/14/4
f 10/19/5 11/18/5 2/17/5
f 4/20/5 2/17/5 11/18/5
f 11/18/6 12/21/6 4/20/6
f 6/22/6 4/20/6 12/21/6
f 6/25/7 12/24/7 5/23/7
f 7/26/7 5/23/7 12/24/7
f 12/24/8 13/27/8 7/26/8
f 14/28/8 7/26/8 13/27/8
f 14/30/9 15/29/9 7/8/9
f 8/10/9 7/8/9 15/29/9
f 15/29/10 16/31/10 8/10/10
f 9/12/10 8/10/10 16/31/10
f 16/33/11 17/32/11 9/15/11
f 10/14/11 9/15/11 17/32/11
f 17/35/12 18/34/12 10/19/12
f 11/18/12 10/19/12 18/34/12
f 18/34/13 13/36/13 11/18/13
f 12/21/13 11/18/13 13/36/13
f 13/36/14 18/34/14 19/37/14
f 20/38/14 19/37/14 18/34/14
f 19/41/15 20/40/15 21/39/15
f 21/39/15 20/40/15 22/42/15
f 23/43/15 22/42/15 20/40/15
f 23/45/16 17/32/16 22/44/16
f 16/33/16 22/44/16 17/32/16
f 16/31/17 15/29/17 22/46/17
f 21/47/17 22/46/17 15/29/17
f 15/29/18 14/30/18 21/47/18
f 24/48/18 21/47/18 14/30/18
f 24/49/15 19/41/15 21/39/15
f 19/51/19 24/50/19 13/27/19
f 14/28/19 13/27/19 24/50/19
f 23/52/20 20/38/20 17/35/20
f 18/34/20 17/35/20 20/38/20
